Coordinates
version=1
nRows=21
nColumns=12
inDegrees=yes

Units are S.I. units (second, meters, Newtons, ...)
Angles are in degrees

endheader
time	SC_y	SC_z	SC_x	AC_y	AC_z	AC_x	GH_y	GH_z	GH_yy	EL_x	PS_y
       0.0              -38.87          15.29          28.54          61.66         -18.09          18.52         -49.06          87.97         -151.6           71.6          119.6
   0.04554              -38.87           15.3          28.55          61.66         -18.09          18.52         -49.03          87.96         -151.6           71.6          119.6
   0.09109              -38.87           15.3          28.56          61.66         -18.09          18.52         -48.99          87.95         -151.6          71.59          119.6
    0.1366              -38.86           15.3          28.57          61.66         -18.09          18.52         -48.96          87.94         -151.6          71.59          119.6
    0.1822              -38.86           15.3          28.58          61.66         -18.09          18.51         -48.92          87.93         -151.6          71.59          119.6
    0.2277              -38.85           15.3          28.59          61.66         -18.09          18.51         -48.88          87.91         -151.6          71.59          119.5
    0.2733              -38.85          15.31           28.6          61.66         -18.09           18.5         -48.83           87.9         -151.6          71.59          119.5
    0.3188              -38.84          15.31          28.61          61.66         -18.09           18.5         -48.78          87.88         -151.6          71.58          119.5
    0.3643              -38.84          15.31          28.62          61.65         -18.09           18.5         -48.73          87.86         -151.6          71.58          119.5
    0.4099              -38.83          15.31          28.64          61.65         -18.09          18.49         -48.68          87.84         -151.6          71.58          119.4
    0.4554              -38.82          15.32          28.65          61.65         -18.09          18.49         -48.62          87.83         -151.5          71.57          119.4
     0.501              -38.81          15.32          28.67          61.65         -18.09          18.48         -48.56           87.8         -151.5          71.57          119.4
    0.5465              -38.81          15.32          28.69          61.65         -18.09          18.47         -48.49          87.78         -151.5          71.57          119.3
    0.5921               -38.8          15.33           28.7          61.64         -18.09          18.47         -48.42          87.76         -151.5          71.56          119.3
    0.6376              -38.79          15.33          28.72          61.64         -18.09          18.46         -48.34          87.73         -151.5          71.56          119.3
    0.6832              -38.78          15.33          28.75          61.64         -18.08          18.45         -48.25           87.7         -151.4          71.55          119.2
    0.7287              -38.77          15.34          28.77          61.64         -18.08          18.44         -48.16          87.67         -151.4          71.55          119.2
    0.7742              -38.76          15.34          28.79          61.63         -18.08          18.44         -48.06          87.63         -151.4          71.54          119.1
    0.8198              -38.74          15.35          28.82          61.63         -18.08          18.43         -47.95           87.6         -151.4          71.53          119.1
    0.8653              -38.73          15.35          28.85          61.63         -18.08          18.42         -47.83          87.56         -151.3          71.53          119.0
    0.9109              -38.71          15.36          28.89          61.62         -18.08           18.4         -47.69          87.51         -151.3          71.52          119.0
